<svg width="33" height="19" viewBox="0 0 33 19" fill="none" xmlns="http://www.w3.org/2000/svg">
<path fill-rule="evenodd" clip-rule="evenodd" d="M17.5382 0.383344C17.5381 0.38317 17.5381 0.383014 18 0.19162C18.4619 0.000225887 18.4619 0.000106081 18.4618 4.26173e-06L18.4624 0.00143827L18.4658 0.00936885L18.4811 0.0447103C18.4951 0.0767085 18.5167 0.125261 18.5461 0.188593C18.6049 0.31529 18.6945 0.500937 18.8155 0.731375C19.0577 1.19264 19.4248 1.83116 19.9215 2.53457C20.9186 3.94668 22.4176 5.5916 24.4502 6.60888C26.5238 7.64671 28.6641 8.16909 30.2927 8.43099C31.1055 8.56169 31.7868 8.62689 32.2632 8.65939C32.5013 8.67563 32.6879 8.68369 32.8139 8.68768C32.8768 8.68968 32.9246 8.69066 32.956 8.69114L32.9907 8.69155L32.9986 8.6916L33.0001 8.6916L33.0002 8.6916C33.0001 8.6916 33 8.6916 33 9.1916C33 9.69164 33.0001 9.69164 33.0002 9.69164L33.0001 9.69164L32.9986 9.69164L32.9907 9.69169L32.956 9.6921C32.9246 9.69258 32.8768 9.69356 32.8139 9.69556C32.6879 9.69955 32.5013 9.70761 32.2632 9.72385C31.7868 9.75635 31.1055 9.82155 30.2927 9.95225C28.6641 10.2141 26.5238 10.7365 24.4502 11.7744C22.4176 12.7916 20.9186 14.4366 19.9215 15.8487C19.4248 16.5521 19.0577 17.1906 18.8155 17.6519C18.6945 17.8823 18.6049 18.0679 18.5461 18.1946C18.5167 18.258 18.4951 18.3065 18.4811 18.3385L18.4658 18.3739L18.4624 18.3818L18.4618 18.3832C18.4619 18.3831 18.4619 18.383 18 18.1916C17.5381 18.0002 17.5381 18.0001 17.5382 17.9999L17.5384 17.9995L17.5389 17.9983L17.5404 17.9946L17.5457 17.9821L17.565 17.9375C17.5818 17.8991 17.6064 17.844 17.6389 17.7739C17.704 17.6336 17.8008 17.4331 17.9302 17.1869C18.1886 16.6948 18.5781 16.0176 19.1046 15.2719C20.154 13.7857 21.7682 11.9984 24.0026 10.8801C25.0083 10.3768 26.0251 9.98959 26.9944 9.69162L0 9.69162V8.69162L26.9945 8.69162C26.0251 8.39365 25.0083 8.00645 24.0026 7.50314C21.7682 6.38483 20.154 4.59756 19.1046 3.11137C18.5781 2.36563 18.1886 1.68847 17.9302 1.19635C17.8008 0.950097 17.704 0.749622 17.6389 0.60937C17.6064 0.539228 17.5818 0.4841 17.565 0.445786L17.5457 0.401132L17.5404 0.388673L17.5389 0.384983L17.5384 0.383782L17.5382 0.383344Z" fill="#293566"/>
</svg>
