<svg width="35" height="20" viewBox="0 0 35 20" fill="none" xmlns="http://www.w3.org/2000/svg">
<path fill-rule="evenodd" clip-rule="evenodd" d="M18.5382 1.38334C18.5381 1.38317 18.5381 1.38301 19 1.19162C19.4619 1.00023 19.4619 1.00011 19.4618 1L19.4624 1.00144L19.4658 1.00937L19.4811 1.04471C19.4951 1.07671 19.5167 1.12526 19.5461 1.18859C19.6049 1.31529 19.6945 1.50094 19.8155 1.73138C20.0577 2.19264 20.4248 2.83116 20.9215 3.53457C21.9186 4.94668 23.4176 6.5916 25.4502 7.60888C27.5238 8.64671 29.6641 9.16909 31.2927 9.43099C32.1055 9.56169 32.7868 9.62689 33.2632 9.65939C33.5013 9.67563 33.6879 9.68369 33.8139 9.68768C33.8768 9.68968 33.9246 9.69066 33.956 9.69114L33.9907 9.69155L33.9986 9.6916L34.0001 9.6916L34.0002 9.6916C34.0001 9.6916 34 9.6916 34 10.1916C34 10.6916 34.0001 10.6916 34.0002 10.6916L34.0001 10.6916L33.9986 10.6916L33.9907 10.6917L33.956 10.6921C33.9246 10.6926 33.8768 10.6936 33.8139 10.6956C33.6879 10.6996 33.5013 10.7076 33.2632 10.7238C32.7868 10.7563 32.1055 10.8215 31.2927 10.9522C29.6641 11.2141 27.5238 11.7365 25.4502 12.7744C23.4176 13.7916 21.9186 15.4366 20.9215 16.8487C20.4248 17.5521 20.0577 18.1906 19.8155 18.6519C19.6945 18.8823 19.6049 19.0679 19.5461 19.1946C19.5167 19.258 19.4951 19.3065 19.4811 19.3385L19.4658 19.3739L19.4624 19.3818L19.4618 19.3832C19.4619 19.3831 19.4619 19.383 19 19.1916C18.5381 19.0002 18.5381 19.0001 18.5382 18.9999L18.5384 18.9995L18.5389 18.9983L18.5404 18.9946L18.5457 18.9821L18.565 18.9375C18.5818 18.8991 18.6064 18.844 18.6389 18.7739C18.704 18.6336 18.8008 18.4331 18.9302 18.1869C19.1886 17.6948 19.5781 17.0176 20.1046 16.2719C21.154 14.7857 22.7682 12.9984 25.0026 11.8801C26.0083 11.3768 27.0251 10.9896 27.9944 10.6916L1 10.6916V9.69162L27.9945 9.69162C27.0251 9.39365 26.0083 9.00645 25.0026 8.50314C22.7682 7.38483 21.154 5.59756 20.1046 4.11137C19.5781 3.36563 19.1886 2.68847 18.9302 2.19635C18.8008 1.9501 18.704 1.74962 18.6389 1.60937C18.6064 1.53923 18.5818 1.4841 18.565 1.44579L18.5457 1.40113L18.5404 1.38867L18.5389 1.38498L18.5384 1.38378L18.5382 1.38334Z" fill="#293566"/>
<path d="M19 1.19162L19.0957 1.42258L19.0957 1.42258L19 1.19162ZM18.5382 1.38334L18.7693 1.28783L18.769 1.28714L18.5382 1.38334ZM19.4618 1L19.6924 0.903397L19.2307 1.09526L19.4618 1ZM19.4624 1.00144L19.2318 1.09805L19.2322 1.09889L19.4624 1.00144ZM19.4658 1.00937L19.2356 1.10682L19.2363 1.10861L19.4658 1.00937ZM19.4811 1.04471L19.2516 1.14395L19.2521 1.14498L19.4811 1.04471ZM19.5461 1.18859L19.7729 1.0834L19.7729 1.0834L19.5461 1.18859ZM19.8155 1.73138L20.0368 1.61513L20.0368 1.61513L19.8155 1.73138ZM20.9215 3.53457L20.7173 3.67877L20.7173 3.67877L20.9215 3.53457ZM25.4502 7.60888L25.5621 7.38532L25.5621 7.38532L25.4502 7.60888ZM31.2927 9.43099L31.253 9.67782L31.253 9.67782L31.2927 9.43099ZM33.2632 9.65939L33.2462 9.90881L33.2462 9.90881L33.2632 9.65939ZM33.8139 9.68768L33.8059 9.93755L33.8059 9.93755L33.8139 9.68768ZM33.956 9.69114L33.9522 9.94111L33.953 9.94112L33.956 9.69114ZM33.9907 9.69155L33.9877 9.94154L33.9892 9.94154L33.9907 9.69155ZM33.9986 9.6916L33.9971 9.94159L33.998 9.94159L33.9986 9.6916ZM34.0001 9.6916L34.0034 9.44161L34.0007 9.4416L34.0001 9.6916ZM34.0002 9.6916L33.9972 9.94158L34.0035 9.44162L34.0002 9.6916ZM34.0002 10.6916L34.0035 10.9416L33.9972 10.4417L34.0002 10.6916ZM34.0001 10.6916L34.0007 10.9417L34.0034 10.9416L34.0001 10.6916ZM33.9986 10.6916L33.998 10.4416L33.9971 10.4416L33.9986 10.6916ZM33.9907 10.6917L33.9892 10.4417L33.9877 10.4417L33.9907 10.6917ZM33.956 10.6921L33.953 10.4421L33.9522 10.4421L33.956 10.6921ZM33.8139 10.6956L33.8059 10.4457L33.8059 10.4457L33.8139 10.6956ZM33.2632 10.7238L33.2462 10.4744L33.2462 10.4744L33.2632 10.7238ZM31.2927 10.9522L31.253 10.7054L31.253 10.7054L31.2927 10.9522ZM25.4502 12.7744L25.5621 12.9979L25.5621 12.9979L25.4502 12.7744ZM20.9215 16.8487L21.1257 16.9929L21.1257 16.9929L20.9215 16.8487ZM19.8155 18.6519L20.0368 18.7681L20.0368 18.7681L19.8155 18.6519ZM19.5461 19.1946L19.7729 19.2998L19.7729 19.2998L19.5461 19.1946ZM19.4811 19.3385L19.2521 19.2383L19.2516 19.2393L19.4811 19.3385ZM19.4658 19.3739L19.2363 19.2746L19.2356 19.2764L19.4658 19.3739ZM19.4624 19.3818L19.2322 19.2844L19.2318 19.2852L19.4624 19.3818ZM19.4618 19.3832L19.2303 19.2889L19.6924 19.4798L19.4618 19.3832ZM18.5382 18.9999L18.7689 19.0962L18.7693 19.0953L18.5382 18.9999ZM18.5384 18.9995L18.3076 18.9035L18.3073 18.904L18.5384 18.9995ZM18.5389 18.9983L18.3083 18.9017L18.3081 18.9023L18.5389 18.9983ZM18.5404 18.9946L18.3102 18.8972L18.3099 18.898L18.5404 18.9946ZM18.5457 18.9821L18.3162 18.8829L18.3155 18.8847L18.5457 18.9821ZM18.565 18.9375L18.336 18.8372L18.3356 18.8382L18.565 18.9375ZM18.6389 18.7739L18.8657 18.8791L18.8657 18.8791L18.6389 18.7739ZM18.9302 18.1869L19.1515 18.3031L19.1515 18.3031L18.9302 18.1869ZM20.1046 16.2719L20.3088 16.4161L20.3088 16.4161L20.1046 16.2719ZM25.0026 11.8801L25.1145 12.1037L25.1145 12.1037L25.0026 11.8801ZM27.9944 10.6916L28.0679 10.9306L27.9944 10.4416L27.9944 10.6916ZM1 10.6916H0.75V10.9416L1 10.9416L1 10.6916ZM1 9.69162L1 9.44162L0.75 9.44162V9.69162H1ZM27.9945 9.69162L27.9945 9.94162L28.0679 9.45266L27.9945 9.69162ZM25.0026 8.50314L25.1145 8.27957L25.1145 8.27957L25.0026 8.50314ZM20.1046 4.11137L20.3088 3.96717L20.3088 3.96717L20.1046 4.11137ZM18.9302 2.19635L19.1515 2.08011L19.1515 2.08011L18.9302 2.19635ZM18.6389 1.60937L18.4122 1.71456L18.4122 1.71456L18.6389 1.60937ZM18.565 1.44579L18.3356 1.545L18.336 1.54605L18.565 1.44579ZM18.5457 1.40113L18.3155 1.49856L18.3162 1.50034L18.5457 1.40113ZM18.5404 1.38867L18.3098 1.48523L18.3102 1.48609L18.5404 1.38867ZM18.5389 1.38498L18.3081 1.48103L18.3083 1.48154L18.5389 1.38498ZM18.5384 1.38378L18.3074 1.4793L18.3076 1.47983L18.5384 1.38378ZM18.9043 0.960661C18.6734 1.05635 18.5578 1.10429 18.4999 1.12833C18.4711 1.14029 18.4562 1.14652 18.4484 1.14979C18.4451 1.15119 18.4413 1.1528 18.4381 1.15423C18.4371 1.15465 18.4354 1.15541 18.4333 1.15637C18.4319 1.15703 18.4271 1.15925 18.4212 1.16238C18.4183 1.16394 18.4124 1.16711 18.4053 1.17159C18.4 1.17492 18.3839 1.18516 18.3662 1.20191C18.3511 1.21621 18.3065 1.26141 18.2924 1.33802C18.285 1.37817 18.2885 1.41383 18.295 1.44132C18.2981 1.45399 18.3015 1.46399 18.3038 1.47012C18.3047 1.47249 18.306 1.47603 18.3065 1.47721C18.307 1.47838 18.3075 1.47955 18.3075 1.47955L18.769 1.28714C18.7669 1.28218 18.7992 1.34684 18.7841 1.42865C18.77 1.50525 18.7253 1.55044 18.7102 1.56474C18.6926 1.58147 18.6765 1.5917 18.6712 1.59501C18.6641 1.59947 18.6583 1.60262 18.6554 1.60415C18.6496 1.60723 18.645 1.60937 18.6438 1.60991C18.642 1.61075 18.6406 1.61135 18.6401 1.61158C18.6387 1.61223 18.6385 1.6123 18.6423 1.61067C18.649 1.60788 18.6629 1.60207 18.6918 1.59005C18.7494 1.56612 18.8647 1.51828 19.0957 1.42258L18.9043 0.960661ZM19.2307 1.09526C19.2326 1.09983 19.2184 1.06922 19.2137 1.03029C19.2078 0.982028 19.2162 0.934533 19.2359 0.893023C19.2529 0.857082 19.2746 0.833506 19.2866 0.821672C19.2994 0.809133 19.3109 0.80058 19.3172 0.796064C19.3297 0.787254 19.3402 0.781595 19.3432 0.779934C19.3477 0.77755 19.3512 0.775806 19.353 0.774967C19.3565 0.773269 19.3592 0.772049 19.3599 0.771756C19.3609 0.771291 19.3617 0.770961 19.3619 0.770862C19.3625 0.770628 19.3619 0.770882 19.3581 0.772453C19.3513 0.775314 19.3372 0.781191 19.3083 0.793189C19.2507 0.817116 19.1353 0.86496 18.9043 0.960661L19.0957 1.42258C19.3266 1.32689 19.4422 1.27897 19.5 1.25497C19.5288 1.243 19.5436 1.23686 19.5512 1.23369C19.5546 1.23225 19.5576 1.23098 19.56 1.22997C19.5606 1.22968 19.5617 1.2292 19.563 1.22863C19.5639 1.22822 19.5669 1.22692 19.5705 1.22517C19.5723 1.22431 19.5759 1.22254 19.5803 1.22014C19.5834 1.21847 19.594 1.21279 19.6064 1.20398C19.6095 1.2018 19.6579 1.17016 19.6878 1.107C19.7074 1.06548 19.7159 1.01799 19.71 0.969723C19.7052 0.930792 19.6911 0.900179 19.693 0.904747L19.2307 1.09526ZM19.693 0.904831L19.6924 0.903397L19.2312 1.09661L19.2318 1.09805L19.693 0.904831ZM19.696 0.911917L19.6927 0.903987L19.2322 1.09889L19.2356 1.10682L19.696 0.911917ZM19.7105 0.945468L19.6952 0.910126L19.2363 1.10861L19.2516 1.14395L19.7105 0.945468ZM19.7729 1.0834C19.7443 1.02177 19.7234 0.974862 19.7101 0.944444L19.2521 1.14498C19.2668 1.17855 19.2892 1.22875 19.3193 1.29379L19.7729 1.0834ZM20.0368 1.61513C19.9179 1.38865 19.8301 1.20671 19.7729 1.0834L19.3193 1.29379C19.3797 1.42387 19.471 1.61323 19.5942 1.84762L20.0368 1.61513ZM21.1257 3.39037C20.6365 2.69755 20.275 2.06869 20.0368 1.61513L19.5942 1.84762C19.8405 2.3166 20.2131 2.96478 20.7173 3.67877L21.1257 3.39037ZM25.5621 7.38532C23.58 6.3933 22.1097 4.78396 21.1257 3.39037L20.7173 3.67877C21.7274 5.1094 23.2552 6.78991 25.3383 7.83245L25.5621 7.38532ZM31.3324 9.18416C29.7195 8.92478 27.6058 8.40816 25.5621 7.38532L25.3383 7.83245C27.4419 8.88526 29.6087 9.4134 31.253 9.67782L31.3324 9.18416ZM33.2802 9.40997C32.8102 9.37791 32.1366 9.31348 31.3324 9.18416L31.253 9.67782C32.0744 9.80991 32.7634 9.87588 33.2462 9.90881L33.2802 9.40997ZM33.8218 9.4378C33.6987 9.4339 33.5151 9.42599 33.2802 9.40997L33.2462 9.90881C33.4875 9.92527 33.6772 9.93347 33.8059 9.93755L33.8218 9.4378ZM33.9598 9.44117C33.9297 9.44071 33.8833 9.43976 33.8218 9.4378L33.8059 9.93755C33.8703 9.93959 33.9194 9.94061 33.9522 9.94111L33.9598 9.44117ZM33.9937 9.44157L33.959 9.44115L33.953 9.94112L33.9877 9.94153L33.9937 9.44157ZM34.0001 9.4416L33.9922 9.44155L33.9892 9.94154L33.9971 9.94159L34.0001 9.4416ZM34.0007 9.4416L33.9992 9.4416L33.998 9.94159L33.9995 9.9416L34.0007 9.4416ZM34.0035 9.44162L34.0034 9.44162L33.9968 9.94158L33.9969 9.94158L34.0035 9.44162ZM34.25 10.1916C34.25 9.94159 34.25 9.81666 34.2501 9.75424C34.2501 9.72296 34.2501 9.70758 34.2501 9.70007C34.2501 9.69604 34.2501 9.69506 34.2501 9.69523C34.2501 9.69535 34.2501 9.69591 34.2501 9.69671C34.2501 9.6972 34.2501 9.69938 34.2499 9.70222C34.2499 9.70362 34.2498 9.70652 34.2495 9.71019C34.2493 9.71269 34.2486 9.72152 34.2468 9.73269C34.2458 9.73832 34.2438 9.74918 34.2399 9.76249C34.2365 9.77388 34.2279 9.80064 34.2083 9.83017C34.1853 9.86471 34.1461 9.90432 34.0865 9.92623C34.0599 9.93599 34.0367 9.93942 34.0209 9.94074C34.015 9.94116 34.0061 9.94153 34.0032 9.94158C34.0002 9.9416 33.9972 9.94158 33.9972 9.94158L34.0032 9.44162C34.0032 9.44162 34.0002 9.4416 33.9972 9.44162C33.9942 9.44167 33.9853 9.44204 33.9794 9.44246C33.9637 9.44378 33.9404 9.44721 33.9139 9.45697C33.8543 9.47889 33.8151 9.51849 33.7921 9.55303C33.7724 9.58257 33.7638 9.60933 33.7604 9.62072C33.7565 9.63404 33.7545 9.6449 33.7536 9.65054C33.7517 9.66173 33.751 9.67058 33.7509 9.67311C33.7506 9.67682 33.7504 9.67977 33.7504 9.68123C33.7502 9.68586 33.7502 9.68992 33.7502 9.68992C33.7501 9.69205 33.7501 9.69497 33.7501 9.69875C33.7501 9.70686 33.7501 9.72274 33.7501 9.75396C33.75 9.81654 33.75 9.94161 33.75 10.1916H34.25ZM33.9972 10.4417C33.9972 10.4417 34.0002 10.4416 34.0032 10.4417C34.0061 10.4417 34.015 10.4421 34.0209 10.4425C34.0367 10.4438 34.0599 10.4472 34.0865 10.457C34.1461 10.4789 34.1853 10.5185 34.2083 10.5531C34.2279 10.5826 34.2365 10.6094 34.2399 10.6208C34.2439 10.6341 34.2458 10.6449 34.2468 10.6506C34.2486 10.6617 34.2493 10.6706 34.2495 10.673C34.2498 10.6767 34.2499 10.6796 34.2499 10.681C34.2501 10.6839 34.2501 10.686 34.2501 10.6865C34.2501 10.6873 34.2501 10.6879 34.2501 10.688C34.2501 10.6882 34.2501 10.6872 34.2501 10.6832C34.2501 10.6757 34.2501 10.6603 34.2501 10.629C34.25 10.5666 34.25 10.4416 34.25 10.1916H33.75C33.75 10.4416 33.75 10.5667 33.7501 10.6293C33.7501 10.6605 33.7501 10.6764 33.7501 10.6845C33.7501 10.6883 33.7501 10.6912 33.7502 10.6933C33.7502 10.6933 33.7502 10.6974 33.7504 10.702C33.7504 10.7035 33.7506 10.7064 33.7509 10.7101C33.751 10.7127 33.7517 10.7215 33.7536 10.7327C33.7545 10.7383 33.7565 10.7492 33.7604 10.7625C33.7638 10.7739 33.7724 10.8007 33.7921 10.8302C33.8151 10.8647 33.8543 10.9043 33.9139 10.9263C33.9404 10.936 33.9636 10.9395 33.9794 10.9408C33.9853 10.9412 33.9942 10.9416 33.9972 10.9416C34.0002 10.9416 34.0032 10.9416 34.0032 10.9416L33.9972 10.4417ZM34.0034 10.9416L34.0035 10.9416L33.9969 10.4417L33.9968 10.4417L34.0034 10.9416ZM33.9992 10.9416L34.0007 10.9416L33.9995 10.4416L33.998 10.4416L33.9992 10.9416ZM33.9922 10.9417L34.0001 10.9416L33.9971 10.4416L33.9892 10.4417L33.9922 10.9417ZM33.959 10.9421L33.9937 10.9417L33.9877 10.4417L33.953 10.4421L33.959 10.9421ZM33.8218 10.9454C33.8833 10.9435 33.9297 10.9425 33.9598 10.9421L33.9522 10.4421C33.9194 10.4426 33.8703 10.4436 33.8059 10.4457L33.8218 10.9454ZM33.2802 10.9733C33.5151 10.9572 33.6987 10.9493 33.8218 10.9454L33.8059 10.4457C33.6772 10.4498 33.4875 10.458 33.2462 10.4744L33.2802 10.9733ZM31.3324 11.1991C32.1366 11.0698 32.8102 11.0053 33.2802 10.9733L33.2462 10.4744C32.7634 10.5074 32.0744 10.5733 31.253 10.7054L31.3324 11.1991ZM25.5621 12.9979C27.6058 11.9751 29.7195 11.4585 31.3324 11.1991L31.253 10.7054C29.6087 10.9698 27.4419 11.498 25.3383 12.5508L25.5621 12.9979ZM21.1257 16.9929C22.1097 15.5993 23.58 13.9899 25.5621 12.9979L25.3383 12.5508C23.2552 13.5933 21.7274 15.2738 20.7173 16.7045L21.1257 16.9929ZM20.0368 18.7681C20.275 18.3146 20.6365 17.6857 21.1257 16.9929L20.7173 16.7045C20.2131 17.4185 19.8405 18.0666 19.5942 18.5356L20.0368 18.7681ZM19.7729 19.2998C19.8301 19.1765 19.9179 18.9946 20.0368 18.7681L19.5942 18.5356C19.471 18.77 19.3797 18.9594 19.3193 19.0895L19.7729 19.2998ZM19.7101 19.4388C19.7234 19.4084 19.7443 19.3615 19.7729 19.2998L19.3193 19.0894C19.2892 19.1545 19.2668 19.2047 19.2521 19.2383L19.7101 19.4388ZM19.6952 19.4731L19.7105 19.4378L19.2516 19.2393L19.2363 19.2746L19.6952 19.4731ZM19.6927 19.4793L19.696 19.4713L19.2356 19.2764L19.2322 19.2844L19.6927 19.4793ZM19.6924 19.4798L19.693 19.4784L19.2318 19.2852L19.2312 19.2866L19.6924 19.4798ZM18.9043 19.4226C19.1353 19.5183 19.2507 19.5661 19.3083 19.5901C19.3372 19.602 19.3513 19.6079 19.3581 19.6108C19.3619 19.6124 19.3625 19.6126 19.3619 19.6124C19.3617 19.6123 19.3609 19.6119 19.3598 19.6115C19.3592 19.6112 19.3564 19.6099 19.3529 19.6082C19.3511 19.6074 19.3475 19.6056 19.3431 19.6032C19.34 19.6015 19.3294 19.5958 19.3169 19.5869C19.3105 19.5824 19.299 19.5738 19.2862 19.5611C19.2741 19.5492 19.2525 19.5255 19.2356 19.4896C19.2161 19.4481 19.2079 19.401 19.2136 19.3532C19.2183 19.3147 19.2322 19.2844 19.2303 19.2889L19.6933 19.4776C19.6915 19.4821 19.7054 19.4517 19.71 19.4132C19.7158 19.3655 19.7076 19.3183 19.6881 19.2769C19.6583 19.2136 19.61 19.1818 19.6067 19.1795C19.5942 19.1706 19.5836 19.1649 19.5805 19.1632C19.576 19.1608 19.5724 19.159 19.5706 19.1581C19.5669 19.1563 19.564 19.155 19.5631 19.1546C19.5618 19.154 19.5607 19.1536 19.56 19.1533C19.5576 19.1523 19.5546 19.151 19.5512 19.1495C19.5436 19.1464 19.5288 19.1402 19.5 19.1283C19.4422 19.1043 19.3266 19.0564 19.0957 18.9607L18.9043 19.4226ZM18.3075 18.9036C18.3096 18.8986 18.2772 18.9634 18.2924 19.0453C18.3065 19.1219 18.3512 19.1672 18.3663 19.1814C18.384 19.1981 18.4001 19.2084 18.4054 19.2117C18.4125 19.2162 18.4183 19.2193 18.4213 19.2209C18.4272 19.224 18.4319 19.2262 18.4334 19.2269C18.4354 19.2278 18.4371 19.2286 18.4381 19.229C18.4413 19.2304 18.4451 19.2321 18.4484 19.2335C18.4562 19.2367 18.4711 19.2429 18.4999 19.2549C18.5578 19.279 18.6734 19.3269 18.9043 19.4226L19.0957 18.9607C18.8647 18.865 18.7494 18.8171 18.6918 18.7932C18.6629 18.7812 18.6489 18.7754 18.6423 18.7726C18.6385 18.7709 18.6387 18.771 18.6401 18.7717C18.6406 18.7719 18.642 18.7725 18.6438 18.7733C18.645 18.7739 18.6496 18.776 18.6554 18.7791C18.6582 18.7806 18.6641 18.7837 18.6712 18.7882C18.6764 18.7915 18.6925 18.8017 18.7102 18.8184C18.7252 18.8327 18.7699 18.8779 18.7841 18.9545C18.7992 19.0365 18.7668 19.1012 18.7689 19.0962L18.3075 18.9036ZM18.3073 18.904L18.3072 18.9045L18.7693 19.0953L18.7695 19.0949L18.3073 18.904ZM18.3081 18.9023L18.3076 18.9035L18.7692 19.0955L18.7697 19.0943L18.3081 18.9023ZM18.3099 18.898L18.3083 18.9017L18.7695 19.0948L18.771 19.0911L18.3099 18.898ZM18.3155 18.8847L18.3102 18.8972L18.7707 19.092L18.776 19.0795L18.3155 18.8847ZM18.3356 18.8382L18.3162 18.8829L18.7752 19.0813L18.7945 19.0367L18.3356 18.8382ZM18.4122 18.6687C18.3788 18.7405 18.3535 18.7973 18.336 18.8372L18.794 19.0377C18.8101 19.001 18.834 18.9475 18.8657 18.8791L18.4122 18.6687ZM18.7088 18.0706C18.5774 18.3209 18.4788 18.525 18.4122 18.6687L18.8657 18.8791C18.9292 18.7422 19.0242 18.5454 19.1515 18.3031L18.7088 18.0706ZM19.9004 16.1277C19.3664 16.884 18.9713 17.5708 18.7088 18.0706L19.1515 18.3031C19.4059 17.8187 19.7898 17.1512 20.3088 16.4161L19.9004 16.1277ZM24.8907 11.6565C22.6058 12.8001 20.9629 14.623 19.9004 16.1277L20.3088 16.4161C21.3451 14.9484 22.9305 13.1967 25.1145 12.1037L24.8907 11.6565ZM27.921 10.4527C26.9406 10.754 25.9107 11.1461 24.8907 11.6565L25.1145 12.1037C26.1059 11.6075 27.1096 11.2252 28.0679 10.9306L27.921 10.4527ZM27.9944 10.4416L1 10.4416L1 10.9416L27.9944 10.9416L27.9944 10.4416ZM1.25 10.6916V9.69162H0.75V10.6916H1.25ZM1 9.94162L27.9945 9.94162L27.9945 9.44162L1 9.44162L1 9.94162ZM24.8907 8.7267C25.9107 9.23715 26.9406 9.62923 27.921 9.93059L28.0679 9.45266C27.1096 9.15807 26.1059 8.77575 25.1145 8.27957L24.8907 8.7267ZM19.9004 4.25556C20.9629 5.76028 22.6058 7.58314 24.8907 8.7267L25.1145 8.27957C22.9305 7.18652 21.3451 5.43484 20.3088 3.96717L19.9004 4.25556ZM18.7088 2.3126C18.9713 2.81243 19.3664 3.49924 19.9004 4.25557L20.3088 3.96717C19.7898 3.23201 19.4059 2.56451 19.1515 2.08011L18.7088 2.3126ZM18.4122 1.71456C18.4788 1.85821 18.5774 2.06239 18.7088 2.3126L19.1515 2.08011C19.0242 1.83781 18.9292 1.64104 18.8657 1.50418L18.4122 1.71456ZM18.336 1.54605C18.3535 1.58595 18.3788 1.64272 18.4122 1.71456L18.8657 1.50418C18.834 1.43574 18.8101 1.38225 18.794 1.34552L18.336 1.54605ZM18.3162 1.50034L18.3356 1.545L18.7945 1.34657L18.7752 1.30192L18.3162 1.50034ZM18.3102 1.48609L18.3155 1.49855L18.776 1.30371L18.7707 1.29125L18.3102 1.48609ZM18.3083 1.48154L18.3098 1.48523L18.771 1.29212L18.7695 1.28843L18.3083 1.48154ZM18.3076 1.47983L18.3081 1.48103L18.7697 1.28893L18.7692 1.28773L18.3076 1.47983ZM18.3072 1.47886L18.3074 1.4793L18.7694 1.28826L18.7693 1.28783L18.3072 1.47886Z" fill="#293566"/>
</svg>
