<svg width="33" height="19" viewBox="0 0 33 19" fill="none" xmlns="http://www.w3.org/2000/svg">
<path fill-rule="evenodd" clip-rule="evenodd" d="M15.4618 0.383339C15.4619 0.383166 15.4619 0.38301 15 0.191616C14.5381 0.000221625 14.5381 0.00010182 14.5382 0L14.5376 0.00143401L14.5342 0.00936459L14.5189 0.044706C14.5049 0.0767042 14.4833 0.125257 14.4539 0.188589C14.3951 0.315286 14.3055 0.500933 14.1845 0.731371C13.9423 1.19264 13.5752 1.83116 13.0785 2.53457C12.0814 3.94667 10.5824 5.5916 8.5498 6.60888C6.47615 7.64671 4.3359 8.16909 2.70726 8.43099C1.89451 8.56169 1.21319 8.62689 0.73679 8.65939C0.498688 8.67563 0.312065 8.68368 0.186131 8.68768C0.123173 8.68967 0.0754089 8.69065 0.0439987 8.69113L0.0092926 8.69154L0.00141525 8.69159L-0.000106812 8.6916L-0.000179291 8.6916C-9.91821e-05 8.6916 0 8.6916 0 9.1916C0 9.69164 -9.91821e-05 9.69164 -0.000179291 9.69164L-0.000106812 9.69164L0.00141525 9.69164L0.0092926 9.69169L0.0439987 9.6921C0.0754089 9.69258 0.123173 9.69356 0.186131 9.69556C0.312065 9.69955 0.498688 9.7076 0.73679 9.72385C1.21319 9.75634 1.89451 9.82154 2.70726 9.95224C4.3359 10.2141 6.47615 10.7365 8.5498 11.7744C10.5824 12.7916 12.0814 14.4366 13.0785 15.8487C13.5752 16.5521 13.9423 17.1906 14.1845 17.6519C14.3055 17.8823 14.3951 18.0679 14.4539 18.1946C14.4833 18.258 14.5049 18.3065 14.5189 18.3385L14.5342 18.3739L14.5376 18.3818L14.5382 18.3832C14.5381 18.3831 14.5381 18.383 15 18.1916C15.4619 18.0002 15.4619 18.0001 15.4618 17.9999L15.4616 17.9995L15.4611 17.9983L15.4596 17.9946L15.4543 17.9821L15.435 17.9375C15.4182 17.8991 15.3936 17.844 15.3611 17.7739C15.296 17.6336 15.1992 17.4331 15.0698 17.1869C14.8114 16.6948 14.4219 16.0176 13.8954 15.2719C12.846 13.7857 11.2318 11.9984 8.99736 10.8801C7.99172 10.3768 6.97491 9.98959 6.00555 9.69162L33 9.69162V8.69162L6.00554 8.69162C6.9749 8.39364 7.99172 8.00644 8.99736 7.50313C11.2318 6.38483 12.846 4.59756 13.8954 3.11136C14.4219 2.36562 14.8114 1.68847 15.0698 1.19635C15.1992 0.950093 15.296 0.749618 15.3611 0.609366C15.3936 0.539224 15.4182 0.484095 15.435 0.445781L15.4543 0.401128L15.4596 0.388668L15.4611 0.384978L15.4616 0.383778L15.4618 0.383339Z" fill="#293566"/>
</svg>
