<svg width="35" height="20" viewBox="0 0 35 20" fill="none" xmlns="http://www.w3.org/2000/svg">
<path fill-rule="evenodd" clip-rule="evenodd" d="M16.4618 1.38334C16.4619 1.38317 16.4619 1.38301 16 1.19162C15.5381 1.00022 15.5381 1.0001 15.5382 1L15.5376 1.00143L15.5342 1.00936L15.5189 1.04471C15.5049 1.0767 15.4833 1.12526 15.4539 1.18859C15.3951 1.31529 15.3055 1.50093 15.1845 1.73137C14.9423 2.19264 14.5752 2.83116 14.0785 3.53457C13.0814 4.94667 11.5824 6.5916 9.5498 7.60888C7.47615 8.64671 5.3359 9.16909 3.70726 9.43099C2.89451 9.56169 2.21319 9.62689 1.73679 9.65939C1.49869 9.67563 1.31207 9.68368 1.18613 9.68768C1.12317 9.68967 1.07541 9.69065 1.044 9.69113L1.00929 9.69154L1.00142 9.69159L0.999893 9.69159L0.999821 9.6916C0.999901 9.69159 1 9.69159 1 10.1916C1 10.6916 0.999901 10.6916 0.999821 10.6916L0.999893 10.6916L1.00142 10.6916L1.00929 10.6917L1.044 10.6921C1.07541 10.6926 1.12317 10.6936 1.18613 10.6956C1.31207 10.6995 1.49869 10.7076 1.73679 10.7238C2.21319 10.7563 2.89451 10.8215 3.70726 10.9522C5.3359 11.2141 7.47615 11.7365 9.5498 12.7744C11.5824 13.7916 13.0814 15.4366 14.0785 16.8487C14.5752 17.5521 14.9423 18.1906 15.1845 18.6519C15.3055 18.8823 15.3951 19.0679 15.4539 19.1946C15.4833 19.258 15.5049 19.3065 15.5189 19.3385L15.5342 19.3739L15.5376 19.3818L15.5382 19.3832C15.5381 19.3831 15.5381 19.383 16 19.1916C16.4619 19.0002 16.4619 19.0001 16.4618 18.9999L16.4616 18.9995L16.4611 18.9983L16.4596 18.9946L16.4543 18.9821L16.435 18.9374C16.4182 18.8991 16.3936 18.844 16.3611 18.7739C16.296 18.6336 16.1992 18.4331 16.0698 18.1869C15.8114 17.6948 15.4219 17.0176 14.8954 16.2719C13.846 14.7857 12.2318 12.9984 9.99736 11.8801C8.99172 11.3768 7.97491 10.9896 7.00555 10.6916L34 10.6916V9.69162L7.00554 9.69162C7.9749 9.39364 8.99172 9.00644 9.99736 8.50313C12.2318 7.38483 13.846 5.59756 14.8954 4.11136C15.4219 3.36562 15.8114 2.68847 16.0698 2.19635C16.1992 1.95009 16.296 1.74962 16.3611 1.60937C16.3936 1.53922 16.4182 1.4841 16.435 1.44578L16.4543 1.40113L16.4596 1.38867L16.4611 1.38498L16.4616 1.38378L16.4618 1.38334Z" fill="#293566"/>
<path d="M16 1.19162L15.9043 1.42257L15.9043 1.42257L16 1.19162ZM16.4618 1.38334L16.2307 1.28782L16.231 1.28713L16.4618 1.38334ZM15.5382 1L15.3076 0.903393L15.7693 1.09526L15.5382 1ZM15.5376 1.00143L15.7682 1.09804L15.7678 1.09889L15.5376 1.00143ZM15.5342 1.00936L15.7644 1.10682L15.7637 1.10861L15.5342 1.00936ZM15.5189 1.04471L15.7484 1.14395L15.7479 1.14497L15.5189 1.04471ZM15.4539 1.18859L15.2271 1.0834L15.2271 1.08339L15.4539 1.18859ZM15.1845 1.73137L14.9632 1.61513L14.9632 1.61513L15.1845 1.73137ZM14.0785 3.53457L14.2827 3.67877L14.2827 3.67877L14.0785 3.53457ZM9.5498 7.60888L9.43791 7.38532L9.43791 7.38532L9.5498 7.60888ZM3.70726 9.43099L3.74695 9.67782L3.74695 9.67782L3.70726 9.43099ZM1.73679 9.65939L1.7538 9.90881L1.7538 9.90881L1.73679 9.65939ZM1.18613 9.68768L1.19405 9.93755L1.19405 9.93755L1.18613 9.68768ZM1.044 9.69113L1.04782 9.9411L1.04697 9.94111L1.044 9.69113ZM1.00929 9.69154L1.01226 9.94153L1.01078 9.94154L1.00929 9.69154ZM1.00142 9.69159L1.0029 9.94159L1.00204 9.94159L1.00142 9.69159ZM0.999893 9.69159L0.996604 9.4416L0.999267 9.4416L0.999893 9.69159ZM0.999821 9.6916L1.0028 9.94158L0.996532 9.44162L0.999821 9.6916ZM0.999821 10.6916L0.996532 10.9416L1.0028 10.4417L0.999821 10.6916ZM0.999893 10.6916L0.999267 10.9416L0.996604 10.9416L0.999893 10.6916ZM1.00142 10.6916L1.00204 10.4416L1.0029 10.4416L1.00142 10.6916ZM1.00929 10.6917L1.01078 10.4417L1.01226 10.4417L1.00929 10.6917ZM1.044 10.6921L1.04697 10.4421L1.04782 10.4421L1.044 10.6921ZM1.18613 10.6956L1.19405 10.4457L1.19405 10.4457L1.18613 10.6956ZM1.73679 10.7238L1.7538 10.4744L1.7538 10.4744L1.73679 10.7238ZM3.70726 10.9522L3.74695 10.7054L3.74695 10.7054L3.70726 10.9522ZM9.5498 12.7744L9.43791 12.9979L9.43791 12.9979L9.5498 12.7744ZM14.0785 16.8487L13.8743 16.9929L13.8743 16.9929L14.0785 16.8487ZM15.1845 18.6519L14.9632 18.7681L14.9632 18.7681L15.1845 18.6519ZM15.4539 19.1946L15.2271 19.2998L15.2271 19.2998L15.4539 19.1946ZM15.5189 19.3385L15.7479 19.2383L15.7484 19.2393L15.5189 19.3385ZM15.5342 19.3739L15.7637 19.2746L15.7644 19.2764L15.5342 19.3739ZM15.5376 19.3818L15.7678 19.2843L15.7682 19.2852L15.5376 19.3818ZM15.5382 19.3832L15.7697 19.2889L15.3076 19.4798L15.5382 19.3832ZM16.4618 18.9999L16.2311 19.0962L16.2307 19.0953L16.4618 18.9999ZM16.4616 18.9995L16.6924 18.9035L16.6927 18.904L16.4616 18.9995ZM16.4611 18.9983L16.6917 18.9017L16.6919 18.9023L16.4611 18.9983ZM16.4596 18.9946L16.6898 18.8972L16.6901 18.898L16.4596 18.9946ZM16.4543 18.9821L16.6838 18.8829L16.6845 18.8847L16.4543 18.9821ZM16.435 18.9374L16.664 18.8372L16.6644 18.8382L16.435 18.9374ZM16.3611 18.7739L16.1343 18.8791L16.1343 18.8791L16.3611 18.7739ZM16.0698 18.1869L15.8485 18.3031L15.8485 18.3031L16.0698 18.1869ZM14.8954 16.2719L14.6912 16.4161L14.6912 16.4161L14.8954 16.2719ZM9.99736 11.8801L9.88547 12.1037L9.88547 12.1037L9.99736 11.8801ZM7.00555 10.6916L6.93209 10.9306L7.00555 10.4416L7.00555 10.6916ZM34 10.6916H34.25V10.9416L34 10.9416L34 10.6916ZM34 9.69162L34 9.44162L34.25 9.44162V9.69162H34ZM7.00554 9.69162L7.00554 9.94162L6.93208 9.45265L7.00554 9.69162ZM9.99736 8.50313L9.88547 8.27957L9.88547 8.27957L9.99736 8.50313ZM14.8954 4.11136L14.6912 3.96716L14.6912 3.96716L14.8954 4.11136ZM16.0698 2.19635L15.8485 2.0801L15.8485 2.0801L16.0698 2.19635ZM16.3611 1.60937L16.5878 1.71456L16.5878 1.71456L16.3611 1.60937ZM16.435 1.44578L16.6644 1.54499L16.664 1.54605L16.435 1.44578ZM16.4543 1.40113L16.6845 1.49855L16.6838 1.50034L16.4543 1.40113ZM16.4596 1.38867L16.6902 1.48522L16.6898 1.48609L16.4596 1.38867ZM16.4611 1.38498L16.6919 1.48103L16.6917 1.48153L16.4611 1.38498ZM16.4616 1.38378L16.6926 1.4793L16.6924 1.47983L16.4616 1.38378ZM16.0957 0.960657C16.3266 1.05635 16.4422 1.10428 16.5001 1.12833C16.5289 1.14029 16.5438 1.14651 16.5516 1.14979C16.5549 1.15119 16.5587 1.15279 16.5619 1.15422C16.5629 1.15465 16.5646 1.15541 16.5667 1.15637C16.5681 1.15702 16.5729 1.15924 16.5788 1.16238C16.5817 1.16393 16.5876 1.16711 16.5947 1.17158C16.6 1.17492 16.6161 1.18516 16.6338 1.2019C16.6489 1.21621 16.6935 1.26141 16.7076 1.33801C16.715 1.37817 16.7115 1.41382 16.705 1.44132C16.7019 1.45398 16.6985 1.46399 16.6962 1.47012C16.6953 1.47249 16.694 1.47603 16.6935 1.4772C16.693 1.47838 16.6925 1.47955 16.6925 1.47955L16.231 1.28713C16.2331 1.28218 16.2008 1.34684 16.2159 1.42865C16.23 1.50525 16.2747 1.55044 16.2898 1.56473C16.3074 1.58147 16.3235 1.59169 16.3288 1.59501C16.3359 1.59947 16.3417 1.60262 16.3446 1.60414C16.3504 1.60722 16.355 1.60936 16.3562 1.6099C16.358 1.61074 16.3594 1.61135 16.3599 1.61158C16.3613 1.61222 16.3615 1.61229 16.3577 1.61066C16.351 1.60788 16.3371 1.60207 16.3082 1.59004C16.2506 1.56612 16.1353 1.51828 15.9043 1.42257L16.0957 0.960657ZM15.7693 1.09526C15.7674 1.09983 15.7816 1.06922 15.7863 1.03029C15.7922 0.982023 15.7838 0.934528 15.7641 0.893018C15.7471 0.857077 15.7254 0.833502 15.7134 0.821668C15.7006 0.809128 15.6891 0.800576 15.6828 0.79606C15.6703 0.78725 15.6598 0.78159 15.6568 0.77993C15.6523 0.777546 15.6488 0.775802 15.647 0.774963C15.6435 0.773265 15.6408 0.772045 15.6401 0.771752C15.6391 0.771287 15.6383 0.770957 15.6381 0.770858C15.6375 0.770624 15.6381 0.770877 15.6419 0.772449C15.6487 0.77531 15.6628 0.781186 15.6917 0.793185C15.7493 0.817111 15.8647 0.864956 16.0957 0.960657L15.9043 1.42257C15.6734 1.32688 15.5578 1.27897 15.5 1.25496C15.4712 1.24299 15.4564 1.23686 15.4488 1.23369C15.4454 1.23224 15.4424 1.23097 15.44 1.22997C15.4394 1.22967 15.4383 1.2292 15.437 1.22862C15.4361 1.22822 15.4331 1.22692 15.4295 1.22517C15.4277 1.2243 15.4241 1.22254 15.4197 1.22014C15.4166 1.21846 15.406 1.21279 15.3936 1.20397C15.3905 1.20179 15.3421 1.17016 15.3122 1.10699C15.2926 1.06548 15.2841 1.01798 15.29 0.969719C15.2948 0.930788 15.3089 0.900175 15.307 0.904743L15.7693 1.09526ZM15.307 0.904827L15.3076 0.903393L15.7688 1.09661L15.7682 1.09804L15.307 0.904827ZM15.304 0.911913L15.3073 0.903982L15.7678 1.09889L15.7644 1.10682L15.304 0.911913ZM15.2895 0.945463L15.3048 0.910122L15.7637 1.10861L15.7484 1.14395L15.2895 0.945463ZM15.2271 1.08339C15.2557 1.02176 15.2766 0.974858 15.2899 0.94444L15.7479 1.14497C15.7332 1.17855 15.7108 1.22875 15.6807 1.29379L15.2271 1.08339ZM14.9632 1.61513C15.0821 1.38864 15.1699 1.2067 15.2271 1.0834L15.6807 1.29378C15.6203 1.42387 15.529 1.61322 15.4058 1.84762L14.9632 1.61513ZM13.8743 3.39037C14.3635 2.69755 14.725 2.06868 14.9632 1.61513L15.4058 1.84761C15.1595 2.3166 14.7869 2.96478 14.2827 3.67877L13.8743 3.39037ZM9.43791 7.38532C11.42 6.39329 12.8903 4.78395 13.8743 3.39037L14.2827 3.67877C13.2726 5.1094 11.7448 6.78991 9.66169 7.83244L9.43791 7.38532ZM3.66757 9.18416C5.28051 8.92478 7.3942 8.40816 9.43791 7.38532L9.66169 7.83244C7.55811 8.88525 5.39128 9.41339 3.74695 9.67782L3.66757 9.18416ZM1.71978 9.40997C2.18979 9.3779 2.86345 9.31347 3.66757 9.18416L3.74695 9.67782C2.92558 9.8099 2.23658 9.87587 1.7538 9.90881L1.71978 9.40997ZM1.17821 9.4378C1.30133 9.4339 1.48491 9.42599 1.71978 9.40997L1.7538 9.90881C1.51246 9.92527 1.3228 9.93347 1.19405 9.93755L1.17821 9.4378ZM1.04017 9.44116C1.07026 9.4407 1.11666 9.43975 1.17821 9.4378L1.19405 9.93755C1.12969 9.93959 1.08055 9.9406 1.04782 9.9411L1.04017 9.44116ZM1.00633 9.44156L1.04103 9.44115L1.04697 9.94111L1.01226 9.94153L1.00633 9.44156ZM0.999932 9.4416L1.00781 9.44155L1.01078 9.94154L1.0029 9.94159L0.999932 9.4416ZM0.999267 9.4416L1.00079 9.44159L1.00204 9.94159L1.00052 9.94159L0.999267 9.4416ZM0.996532 9.44162L0.996604 9.44162L1.00318 9.94157L1.00311 9.94157L0.996532 9.44162ZM0.75 10.1916C0.75 9.94159 0.749975 9.81665 0.74994 9.75423C0.749923 9.72296 0.749903 9.70758 0.749883 9.70007C0.749873 9.69604 0.749864 9.69506 0.749866 9.69523C0.749867 9.69535 0.749873 9.69591 0.749888 9.69671C0.749897 9.6972 0.749937 9.69937 0.750056 9.70221C0.750115 9.70361 0.750247 9.70651 0.750521 9.71019C0.750706 9.71269 0.751365 9.72151 0.753226 9.73269C0.754164 9.73832 0.75615 9.74917 0.760086 9.76248C0.763454 9.77388 0.772076 9.80064 0.791742 9.83017C0.814741 9.8647 0.853948 9.90431 0.913504 9.92622C0.940056 9.93599 0.963297 9.93942 0.979075 9.94073C0.98498 9.94115 0.993865 9.94152 0.996836 9.94158C0.999813 9.9416 1.00279 9.94158 1.0028 9.94158L0.996845 9.44161C0.996848 9.44161 0.999829 9.4416 1.00281 9.44161C1.00578 9.44167 1.01466 9.44204 1.02057 9.44246C1.03635 9.44377 1.05959 9.4472 1.08614 9.45697C1.1457 9.47888 1.18491 9.51849 1.20791 9.55303C1.22757 9.58256 1.2362 9.60932 1.23957 9.62072C1.2435 9.63403 1.24549 9.6449 1.24643 9.65053C1.24829 9.66172 1.24896 9.67057 1.24914 9.67311C1.24942 9.67682 1.24955 9.67976 1.24962 9.68122C1.24981 9.68586 1.24984 9.68991 1.24984 9.68991C1.24986 9.69204 1.24987 9.69496 1.24988 9.69875C1.2499 9.70686 1.24992 9.72273 1.24994 9.75396C1.24998 9.81653 1.25 9.9416 1.25 10.1916H0.75ZM1.0028 10.4417C1.00279 10.4417 0.999813 10.4416 0.996836 10.4417C0.993864 10.4417 0.984979 10.4421 0.979073 10.4425C0.963293 10.4438 0.940051 10.4472 0.913498 10.457C0.853939 10.4789 0.814733 10.5185 0.791737 10.5531C0.772072 10.5826 0.763452 10.6094 0.760084 10.6208C0.756149 10.6341 0.754163 10.6449 0.753225 10.6505C0.751364 10.6617 0.750706 10.6705 0.75052 10.673C0.750247 10.6767 0.750115 10.6796 0.750056 10.681C0.749937 10.6839 0.749897 10.686 0.749888 10.6865C0.749873 10.6873 0.749867 10.6879 0.749866 10.688C0.749864 10.6882 0.749873 10.6872 0.749883 10.6832C0.749903 10.6756 0.749923 10.6603 0.74994 10.629C0.749975 10.5666 0.75 10.4416 0.75 10.1916H1.25C1.25 10.4416 1.24998 10.5667 1.24994 10.6293C1.24992 10.6605 1.2499 10.6764 1.24988 10.6845C1.24987 10.6883 1.24986 10.6912 1.24984 10.6933C1.24984 10.6933 1.24981 10.6974 1.24962 10.702C1.24955 10.7035 1.24942 10.7064 1.24914 10.7101C1.24896 10.7127 1.24829 10.7215 1.24643 10.7327C1.24549 10.7383 1.2435 10.7492 1.23957 10.7625C1.2362 10.7739 1.22758 10.8007 1.20791 10.8302C1.18491 10.8647 1.14571 10.9043 1.08615 10.9263C1.05959 10.936 1.03635 10.9395 1.02057 10.9408C1.01466 10.9412 1.00578 10.9416 1.00281 10.9416C0.999829 10.9416 0.996848 10.9416 0.996845 10.9416L1.0028 10.4417ZM0.996604 10.9416L0.996532 10.9416L1.00311 10.4417L1.00318 10.4417L0.996604 10.9416ZM1.00079 10.9416L0.999267 10.9416L1.00052 10.4416L1.00204 10.4416L1.00079 10.9416ZM1.00781 10.9417L0.999932 10.9416L1.0029 10.4416L1.01078 10.4417L1.00781 10.9417ZM1.04103 10.9421L1.00633 10.9417L1.01226 10.4417L1.04697 10.4421L1.04103 10.9421ZM1.17821 10.9454C1.11666 10.9435 1.07026 10.9425 1.04017 10.9421L1.04782 10.4421C1.08055 10.4426 1.12969 10.4436 1.19405 10.4457L1.17821 10.9454ZM1.71978 10.9733C1.48491 10.9572 1.30133 10.9493 1.17821 10.9454L1.19405 10.4457C1.3228 10.4498 1.51246 10.458 1.7538 10.4744L1.71978 10.9733ZM3.66757 11.1991C2.86345 11.0698 2.18979 11.0053 1.71978 10.9733L1.7538 10.4744C2.23658 10.5074 2.92558 10.5733 3.74695 10.7054L3.66757 11.1991ZM9.43791 12.9979C7.3942 11.9751 5.28051 11.4585 3.66757 11.1991L3.74695 10.7054C5.39128 10.9698 7.55811 11.498 9.66169 12.5508L9.43791 12.9979ZM13.8743 16.9929C12.8903 15.5993 11.42 13.9899 9.43791 12.9979L9.66169 12.5508C11.7448 13.5933 13.2726 15.2738 14.2827 16.7045L13.8743 16.9929ZM14.9632 18.7681C14.725 18.3146 14.3635 17.6857 13.8743 16.9929L14.2827 16.7045C14.7869 17.4185 15.1595 18.0666 15.4058 18.5356L14.9632 18.7681ZM15.2271 19.2998C15.1699 19.1765 15.0821 18.9946 14.9632 18.7681L15.4058 18.5356C15.529 18.77 15.6203 18.9594 15.6807 19.0895L15.2271 19.2998ZM15.2899 19.4388C15.2766 19.4084 15.2557 19.3615 15.2271 19.2998L15.6807 19.0894C15.7108 19.1545 15.7332 19.2047 15.7479 19.2383L15.2899 19.4388ZM15.3048 19.4731L15.2895 19.4378L15.7484 19.2393L15.7637 19.2746L15.3048 19.4731ZM15.3073 19.4792L15.304 19.4713L15.7644 19.2764L15.7678 19.2843L15.3073 19.4792ZM15.3076 19.4798L15.307 19.4784L15.7682 19.2852L15.7688 19.2866L15.3076 19.4798ZM16.0957 19.4226C15.8647 19.5183 15.7493 19.5661 15.6917 19.59C15.6628 19.602 15.6487 19.6079 15.6419 19.6108C15.6381 19.6124 15.6375 19.6126 15.6381 19.6124C15.6383 19.6123 15.6391 19.6119 15.6402 19.6115C15.6408 19.6112 15.6436 19.6099 15.6471 19.6082C15.6489 19.6074 15.6525 19.6056 15.6569 19.6032C15.66 19.6015 15.6706 19.5958 15.6831 19.5869C15.6895 19.5824 15.701 19.5738 15.7138 19.5611C15.7259 19.5492 15.7475 19.5255 15.7644 19.4896C15.7839 19.4481 15.7921 19.401 15.7864 19.3532C15.7817 19.3147 15.7678 19.2844 15.7697 19.2889L15.3067 19.4776C15.3085 19.4821 15.2946 19.4517 15.29 19.4132C15.2842 19.3655 15.2924 19.3183 15.3119 19.2769C15.3417 19.2136 15.39 19.1818 15.3933 19.1795C15.4058 19.1706 15.4164 19.1649 15.4195 19.1632C15.424 19.1608 15.4276 19.159 15.4294 19.1581C15.4331 19.1563 15.436 19.155 15.4369 19.1546C15.4382 19.154 15.4393 19.1536 15.44 19.1533C15.4424 19.1523 15.4454 19.151 15.4488 19.1495C15.4564 19.1464 15.4712 19.1402 15.5 19.1283C15.5578 19.1043 15.6734 19.0564 15.9043 18.9607L16.0957 19.4226ZM16.6925 18.9036C16.6904 18.8986 16.7228 18.9633 16.7076 19.0453C16.6935 19.1219 16.6488 19.1671 16.6337 19.1814C16.616 19.1981 16.5999 19.2084 16.5946 19.2117C16.5875 19.2162 16.5817 19.2193 16.5787 19.2209C16.5728 19.224 16.5681 19.2262 16.5666 19.2269C16.5646 19.2278 16.5629 19.2286 16.5619 19.229C16.5587 19.2304 16.5549 19.232 16.5516 19.2334C16.5438 19.2367 16.5289 19.2429 16.5001 19.2549C16.4422 19.2789 16.3266 19.3269 16.0957 19.4226L15.9043 18.9607C16.1353 18.865 16.2506 18.8171 16.3082 18.7932C16.3371 18.7812 16.3511 18.7754 16.3577 18.7726C16.3615 18.7709 16.3613 18.771 16.3599 18.7716C16.3594 18.7719 16.358 18.7725 16.3562 18.7733C16.355 18.7739 16.3504 18.776 16.3446 18.7791C16.3418 18.7806 16.3359 18.7837 16.3288 18.7882C16.3236 18.7915 16.3075 18.8017 16.2898 18.8184C16.2748 18.8327 16.2301 18.8779 16.2159 18.9545C16.2008 19.0365 16.2332 19.1012 16.2311 19.0962L16.6925 18.9036ZM16.6927 18.904L16.6928 18.9045L16.2307 19.0953L16.2305 19.0949L16.6927 18.904ZM16.6919 18.9023L16.6924 18.9035L16.2308 19.0955L16.2303 19.0943L16.6919 18.9023ZM16.6901 18.898L16.6917 18.9017L16.2305 19.0948L16.229 19.0911L16.6901 18.898ZM16.6845 18.8847L16.6898 18.8972L16.2293 19.092L16.224 19.0795L16.6845 18.8847ZM16.6644 18.8382L16.6838 18.8829L16.2248 19.0813L16.2055 19.0367L16.6644 18.8382ZM16.5878 18.6687C16.6212 18.7405 16.6465 18.7973 16.664 18.8372L16.206 19.0377C16.1899 19.001 16.166 18.9475 16.1343 18.8791L16.5878 18.6687ZM16.2912 18.0706C16.4226 18.3208 16.5212 18.525 16.5878 18.6687L16.1343 18.8791C16.0708 18.7422 15.9758 18.5454 15.8485 18.3031L16.2912 18.0706ZM15.0996 16.1277C15.6336 16.884 16.0287 17.5708 16.2912 18.0706L15.8485 18.3031C15.5941 17.8187 15.2102 17.1512 14.6912 16.4161L15.0996 16.1277ZM10.1093 11.6565C12.3942 12.8001 14.0371 14.623 15.0996 16.1277L14.6912 16.4161C13.6549 14.9484 12.0695 13.1967 9.88547 12.1037L10.1093 11.6565ZM7.07901 10.4527C8.05938 10.754 9.08935 11.1461 10.1093 11.6565L9.88547 12.1037C8.89409 11.6075 7.89043 11.2252 6.93209 10.9306L7.07901 10.4527ZM7.00555 10.4416L34 10.4416L34 10.9416L7.00555 10.9416L7.00555 10.4416ZM33.75 10.6916V9.69162H34.25V10.6916H33.75ZM34 9.94162L7.00554 9.94162L7.00554 9.44162L34 9.44162L34 9.94162ZM10.1093 8.7267C9.08934 9.23714 8.05937 9.62922 7.07899 9.93058L6.93208 9.45265C7.89043 9.15807 8.89409 8.77574 9.88547 8.27957L10.1093 8.7267ZM15.0996 4.25556C14.0371 5.76028 12.3942 7.58313 10.1093 8.7267L9.88547 8.27957C12.0695 7.18652 13.6549 5.43484 14.6912 3.96716L15.0996 4.25556ZM16.2912 2.31259C16.0287 2.81243 15.6336 3.49924 15.0996 4.25556L14.6912 3.96716C15.2102 3.23201 15.5941 2.56451 15.8485 2.0801L16.2912 2.31259ZM16.5878 1.71456C16.5212 1.8582 16.4226 2.06238 16.2912 2.31259L15.8485 2.0801C15.9758 1.8378 16.0708 1.64103 16.1343 1.50417L16.5878 1.71456ZM16.664 1.54605C16.6465 1.58594 16.6212 1.64272 16.5878 1.71456L16.1343 1.50417C16.166 1.43573 16.1899 1.38225 16.206 1.34551L16.664 1.54605ZM16.6838 1.50034L16.6644 1.54499L16.2055 1.34657L16.2248 1.30192L16.6838 1.50034ZM16.6898 1.48609L16.6845 1.49855L16.224 1.30371L16.2293 1.29125L16.6898 1.48609ZM16.6917 1.48153L16.6902 1.48522L16.229 1.29211L16.2305 1.28842L16.6917 1.48153ZM16.6924 1.47983L16.6919 1.48103L16.2303 1.28893L16.2308 1.28773L16.6924 1.47983ZM16.6928 1.47886L16.6926 1.4793L16.2306 1.28826L16.2307 1.28782L16.6928 1.47886Z" fill="#293566"/>
</svg>
